<svg width="24" height="24" viewBox="0 0 24 24" fill="none" xmlns="http://www.w3.org/2000/svg">
<path d="M12 1.25C12.2882 1.25 12.5508 1.41514 12.6758 1.6748C12.8007 1.93465 12.766 2.24362 12.5859 2.46875L10.5859 4.96875C10.3272 5.2922 9.8547 5.34469 9.53125 5.08594C9.2078 4.82718 9.15531 4.3547 9.41406 4.03125L10.3154 2.90527C6.01134 3.69742 2.75 7.46681 2.75 12C2.75 17.1086 6.89137 21.25 12 21.25C17.1086 21.25 21.25 17.1086 21.25 12C21.25 9.91636 20.562 7.99528 19.4004 6.44922C19.1518 6.11807 19.2187 5.64817 19.5498 5.39941C19.881 5.15078 20.3509 5.21773 20.5996 5.54883C21.9496 7.34571 22.75 9.58042 22.75 12C22.75 17.9371 17.9371 22.75 12 22.75C6.06294 22.75 1.25 17.9371 1.25 12C1.25 6.06294 6.06294 1.25 12 1.25ZM9.53125 7.91406C9.75637 7.73397 10.0654 7.69935 10.3252 7.82422C10.5849 7.94917 10.75 8.21182 10.75 8.5V15.5C10.75 15.9142 10.4142 16.25 10 16.25C9.58582 16.25 9.25001 15.9142 9.25 15.5V10.0605L7.96875 11.0859C7.6453 11.3447 7.17281 11.2922 6.91406 10.9688C6.65532 10.6453 6.70784 10.1728 7.03125 9.91406L9.53125 7.91406ZM14.25 7.75C15.6307 7.75 16.75 8.86929 16.75 10.25V13.75C16.75 15.1307 15.6307 16.25 14.25 16.25C12.8693 16.25 11.75 15.1307 11.75 13.75V10.25C11.75 8.86929 12.8693 7.75 14.25 7.75ZM14.25 9.25C13.6977 9.25 13.25 9.69772 13.25 10.25V13.75C13.25 14.3023 13.6977 14.75 14.25 14.75C14.8023 14.75 15.25 14.3023 15.25 13.75V10.25C15.25 9.69772 14.8023 9.25 14.25 9.25Z" fill="white"/>
</svg>
