<svg width="24" height="24" viewBox="0 0 24 24" fill="none" xmlns="http://www.w3.org/2000/svg">
<path fill-rule="evenodd" clip-rule="evenodd" d="M16.0599 3.82282C16.2163 3.90141 16.3453 4.02552 16.4299 4.17882C16.5039 4.32182 16.5109 4.66582 16.4419 4.80182C16.4139 4.85582 14.7959 6.49782 12.8459 8.44982L9.29989 11.9998L12.8459 15.5498C14.7959 17.5028 16.4139 19.1438 16.4419 19.1978C16.5109 19.3338 16.5039 19.6778 16.4289 19.8208C16.2379 20.1868 15.8289 20.3358 15.4489 20.1778C15.2659 20.1028 7.76889 12.6308 7.61289 12.3688C7.5447 12.2578 7.50861 12.1301 7.50861 11.9998C7.50861 11.8695 7.5447 11.7418 7.61289 11.6308C7.76889 11.3688 15.2659 3.89682 15.4489 3.82182C15.6389 3.74282 15.9069 3.74282 16.0599 3.82282Z" fill="white"/>
</svg>
