<svg width="24" height="24" viewBox="0 0 24 24" fill="none" xmlns="http://www.w3.org/2000/svg">
<path fill-rule="evenodd" clip-rule="evenodd" d="M18.564 5.60718C18.431 5.67318 17.264 6.87318 13.769 10.5372C11.228 13.2012 8.99901 15.5332 8.81501 15.7192L8.48101 16.0582L7.01001 14.5952C5.70101 13.2922 5.51801 13.1242 5.34301 13.0652C4.95401 12.9362 4.57701 13.0212 4.29901 13.2992C4.02101 13.5772 3.93601 13.9542 4.06501 14.3432C4.12401 14.5202 4.31801 14.7292 5.99101 16.4072C8.02301 18.4462 8.08001 18.4932 8.48701 18.4932C8.96401 18.4932 8.64301 18.8052 14.487 12.6802C18.651 8.31618 19.832 7.05618 19.905 6.90018C20.136 6.40918 19.887 5.78918 19.374 5.57518C19.168 5.48918 18.771 5.50518 18.564 5.60718Z" fill="white"/>
</svg>
