<svg width="24" height="24" viewBox="0 0 24 24" fill="none" xmlns="http://www.w3.org/2000/svg">
<path d="M13.25 7.00001C13.25 7.41422 13.5858 7.75001 14 7.75001H15.1892L12.9697 9.96968C12.6768 10.2626 12.6768 10.7374 12.9697 11.0303C13.2626 11.3232 13.7374 11.3232 14.0303 11.0303L16.25 8.81067V10C16.25 10.4142 16.5858 10.75 17 10.75C17.4142 10.75 17.75 10.4142 17.75 10V7.00001C17.75 6.5858 17.4142 6.25001 17 6.25001H14C13.5858 6.25001 13.25 6.5858 13.25 7.00001Z" fill="white"/>
<path d="M11.0303 14.0303C11.3232 13.7374 11.3232 13.2626 11.0303 12.9697C10.7374 12.6768 10.2626 12.6768 9.96962 12.9697L7.74995 15.1893V14C7.74995 13.5858 7.41416 13.25 6.99995 13.25C6.58574 13.25 6.24995 13.5858 6.24995 14V17C6.24995 17.4142 6.58574 17.75 6.99995 17.75H9.99995C10.4142 17.75 10.75 17.4142 10.75 17C10.75 16.5858 10.4142 16.25 9.99995 16.25H8.81061L11.0303 14.0303Z" fill="white"/>
<path fill-rule="evenodd" clip-rule="evenodd" d="M11.9426 1.24998H12.0574C14.3658 1.24997 16.1748 1.24997 17.5863 1.43973C19.031 1.63397 20.1711 2.03931 21.0659 2.93413C21.9607 3.82893 22.366 4.96896 22.5603 6.4137C22.75 7.82518 22.75 9.63422 22.75 11.9426V12.0574C22.75 14.3658 22.75 16.1748 22.5603 17.5863C22.366 19.031 21.9607 20.1711 21.0659 21.0659C20.1711 21.9607 19.031 22.366 17.5863 22.5603C16.1748 22.75 14.3658 22.75 12.0574 22.75H11.9426C9.63423 22.75 7.82519 22.75 6.41371 22.5603C4.96897 22.366 3.82895 21.9607 2.93414 21.0659C2.03933 20.1711 1.63399 19.031 1.43975 17.5863C1.24998 16.1748 1.24999 14.3658 1.25 12.0575V11.9426C1.24999 9.63425 1.24998 7.82516 1.43975 6.4137C1.63399 4.96896 2.03933 3.82893 2.93414 2.93413C3.82895 2.03931 4.96897 1.63397 6.41371 1.43973C7.82517 1.24997 9.63427 1.24997 11.9426 1.24998ZM6.61358 2.92635C5.33517 3.09823 4.56445 3.42513 3.9948 3.99479C3.42514 4.56444 3.09825 5.33516 2.92637 6.61357C2.75159 7.91355 2.75 9.62177 2.75 12C2.75 14.3782 2.75159 16.0864 2.92637 17.3864C3.09825 18.6648 3.42514 19.4355 3.9948 20.0052C4.56445 20.5749 5.33517 20.9018 6.61358 21.0736C7.91356 21.2484 9.62178 21.25 12 21.25C14.3782 21.25 16.0864 21.2484 17.3864 21.0736C18.6648 20.9018 19.4355 20.5749 20.0052 20.0052C20.5749 19.4355 20.9018 18.6648 21.0736 17.3864C21.2484 16.0864 21.25 14.3782 21.25 12C21.25 9.62177 21.2484 7.91355 21.0736 6.61357C20.9018 5.33516 20.5749 4.56444 20.0052 3.99479C19.4355 3.42513 18.6648 3.09823 17.3864 2.92635C16.0864 2.75157 14.3782 2.74999 12 2.74999C9.62178 2.74999 7.91356 2.75157 6.61358 2.92635Z" fill="white"/>
</svg>
