<svg width="24" height="24" viewBox="0 0 24 24" fill="none" xmlns="http://www.w3.org/2000/svg">
<path fill-rule="evenodd" clip-rule="evenodd" d="M7.94012 3.82282C7.78367 3.90141 7.65468 4.02552 7.57012 4.17882C7.49612 4.32182 7.48912 4.66582 7.55812 4.80182C7.58612 4.85582 9.20412 6.49782 11.1541 8.44982L14.7001 11.9998L11.1541 15.5498C9.20412 17.5028 7.58612 19.1438 7.55812 19.1978C7.48912 19.3338 7.49612 19.6778 7.57112 19.8208C7.76212 20.1868 8.17111 20.3358 8.55111 20.1778C8.73411 20.1028 16.2311 12.6308 16.3871 12.3688C16.4553 12.2578 16.4914 12.1301 16.4914 11.9998C16.4914 11.8695 16.4553 11.7418 16.3871 11.6308C16.2311 11.3688 8.73411 3.89682 8.55111 3.82182C8.36111 3.74282 8.09312 3.74282 7.94012 3.82282Z" fill="white"/>
</svg>
