<svg width="24" height="24" viewBox="0 0 24 24" fill="none" xmlns="http://www.w3.org/2000/svg">
<path d="M2.99976 6.6C2.99976 4.90294 2.99976 4.05442 3.52696 3.52721C4.05417 3 4.9027 3 6.59976 3C8.29681 3 9.14534 3 9.67255 3.52721C10.1998 4.05442 10.1998 4.90294 10.1998 6.6V17.4C10.1998 19.0971 10.1998 19.9456 9.67255 20.4728C9.14534 21 8.29681 21 6.59976 21C4.9027 21 4.05417 21 3.52696 20.4728C2.99976 19.9456 2.99976 19.0971 2.99976 17.4V6.6Z" fill="white"/>
<path d="M13.7998 6.6C13.7998 4.90294 13.7998 4.05442 14.327 3.52721C14.8542 3 15.7027 3 17.3998 3C19.0968 3 19.9453 3 20.4725 3.52721C20.9998 4.05442 20.9998 4.90294 20.9998 6.6V17.4C20.9998 19.0971 20.9998 19.9456 20.4725 20.4728C19.9453 21 19.0968 21 17.3998 21C15.7027 21 14.8542 21 14.327 20.4728C13.7998 19.9456 13.7998 19.0971 13.7998 17.4V6.6Z" fill="white"/>
</svg>
