<svg width="24" height="24" viewBox="0 0 24 24" fill="none" xmlns="http://www.w3.org/2000/svg">
<path fill-rule="evenodd" clip-rule="evenodd" d="M7.71996 2.28301C5.75996 2.33601 4.85296 2.54801 3.86896 3.18401C2.57396 4.02201 1.72296 5.26901 1.44296 6.73801C1.28196 7.58701 1.26196 8.05901 1.26196 11C1.26196 13.941 1.28196 14.413 1.44296 15.262C1.64996 16.347 2.13596 17.257 2.93996 18.06C3.93696 19.057 4.92896 19.495 6.61996 19.682C7.23396 19.75 13.401 19.784 13.614 19.721C14.253 19.529 14.367 18.699 13.8 18.366L13.62 18.26L10.2 18.234C8.31896 18.22 6.73496 18.199 6.67996 18.187C6.54067 18.1604 6.40061 18.1381 6.25996 18.12C5.43628 18.0181 4.66715 17.6542 4.06596 17.082C3.59996 16.649 3.12896 15.864 2.98396 15.28C2.79496 14.519 2.78096 14.235 2.78096 11C2.78096 8.31401 2.78996 7.88101 2.84996 7.46001C2.94296 6.81301 3.01996 6.52201 3.20396 6.12601C3.59272 5.28738 4.26381 4.61204 5.09996 4.21801C5.51796 4.02101 5.79596 3.94601 6.45996 3.85001C6.89596 3.78601 7.40196 3.78001 12 3.78001C16.598 3.78001 17.104 3.78601 17.54 3.85001C18.228 3.94901 18.488 4.02201 18.94 4.24001C19.7314 4.62847 20.3715 5.26859 20.76 6.06001C20.979 6.51401 21.052 6.77601 21.149 7.46001C21.208 7.87601 21.217 8.33201 21.218 10.9C21.22 13.139 21.207 13.989 21.165 14.391C21.115 14.876 21.116 14.937 21.178 15.099C21.311 15.449 21.689 15.655 22.032 15.564C22.398 15.468 22.572 15.239 22.639 14.768C22.732 14.113 22.77 12.532 22.747 10.3C22.724 8.07201 22.7 7.59501 22.578 6.86001C22.287 5.11201 21.147 3.61701 19.511 2.84001C18.703 2.45601 17.945 2.33301 16.06 2.28001C14.512 2.23701 9.36796 2.23801 7.71996 2.28301ZM9.97096 6.29901C9.22396 6.46501 8.63896 7.06401 8.46196 7.84001C8.30296 8.54201 8.20896 10.629 8.27396 12.016C8.35496 13.759 8.41796 14.208 8.64596 14.675C8.90196 15.201 9.50296 15.635 10.104 15.728C10.567 15.8 10.879 15.713 11.78 15.263C12.6523 14.8375 13.4943 14.3524 14.3 13.811C15.269 13.171 15.923 12.685 16.191 12.407C16.944 11.624 16.933 10.349 16.168 9.57101C15.727 9.12301 14.03 7.96201 12.88 7.32001C11.139 6.34801 10.6 6.15901 9.97096 6.29901ZM11.249 8.15301C12.0502 8.5468 12.8224 8.99693 13.56 9.50001C14.539 10.15 15.107 10.578 15.18 10.72C15.218 10.8084 15.2377 10.9037 15.2377 11C15.2377 11.0963 15.218 11.1916 15.18 11.28C15.066 11.5 13.247 12.762 12.18 13.361C11.418 13.789 10.479 14.24 10.35 14.24C10.2734 14.2358 10.1992 14.2117 10.1346 14.1701C10.0701 14.1286 10.0175 14.071 9.98196 14.003C9.87296 13.793 9.75996 12.262 9.75996 11C9.75996 9.72401 9.87296 8.20701 9.98396 7.99201C10.0235 7.92426 10.0795 7.86763 10.1468 7.8274C10.2142 7.78718 10.2906 7.76468 10.369 7.76201C10.431 7.76101 10.814 7.93101 11.249 8.15301ZM18.82 14.276C18.493 14.357 18.321 14.561 18.202 15.005C18.0246 15.6668 17.6358 16.2525 17.095 16.673C16.75 16.932 16.483 17.061 16 17.204C15.68 17.299 15.597 17.341 15.473 17.474C15.305 17.653 15.221 17.906 15.26 18.115C15.329 18.48 15.54 18.673 16.005 18.799C16.5334 18.9366 17.0155 19.2126 17.4017 19.5986C17.7879 19.9846 18.0641 20.4667 18.202 20.995C18.326 21.46 18.52 21.671 18.885 21.74C19.109 21.782 19.357 21.694 19.543 21.506C19.681 21.367 19.722 21.285 19.798 21C19.9345 20.4705 20.2103 19.9872 20.5966 19.6002C20.9829 19.2132 21.4657 18.9365 21.995 18.799C22.46 18.673 22.671 18.48 22.74 18.115C22.779 17.906 22.695 17.653 22.527 17.474C22.403 17.341 22.32 17.299 22 17.204C21.517 17.061 21.25 16.932 20.905 16.673C20.3641 16.2525 19.9754 15.6668 19.798 15.005C19.67 14.528 19.471 14.318 19.1 14.268C19.0068 14.2563 18.9123 14.259 18.82 14.276ZM19.274 17.189C19.411 17.348 19.652 17.589 19.811 17.726C19.97 17.862 20.105 17.986 20.111 18.001C20.118 18.016 20.026 18.103 19.907 18.195C19.6218 18.4304 19.3605 18.6933 19.127 18.98L18.996 19.14L18.87 18.98C18.6088 18.6747 18.3247 18.3899 18.02 18.128L17.86 18L18.02 17.871C18.308 17.637 18.636 17.313 18.805 17.093C18.897 16.974 18.984 16.882 18.999 16.889C19.014 16.895 19.138 17.03 19.274 17.189Z" fill="white"/>
</svg>
