<svg width="77" height="24" viewBox="0 0 77 19" fill="none" xmlns="http://www.w3.org/2000/svg">
    <path d="M67.9429 10.4641C68.3523 11.9443 69.4624 12.6844 71.2733 12.6844C72.4386 12.6844 73.3204 12.2908 73.9188 11.5034L76.3753 12.9206C75.21 14.6055 73.4936 15.448 71.2261 15.448C69.2735 15.448 67.7067 14.8575 66.5257 13.6765C65.3447 12.4955 64.7542 11.0074 64.7542 9.21228C64.7542 7.4329 65.3368 5.9527 66.502 4.77169C67.6673 3.57494 69.1632 2.97656 70.9899 2.97656C72.722 2.97656 74.1471 3.57494 75.2651 4.77169C76.3989 5.96845 76.9658 7.44864 76.9658 9.21228C76.9658 9.60595 76.9264 10.0232 76.8477 10.4641H67.9429ZM67.8956 8.10213H73.9188C73.7456 7.29905 73.3834 6.70067 72.8322 6.307C72.2968 5.91333 71.6827 5.7165 70.9899 5.7165C70.171 5.7165 69.4939 5.92908 68.9585 6.35424C68.4231 6.76366 68.0688 7.34629 67.8956 8.10213Z" fill="white"/>
    <path d="M63.825 6.23572H61.1559V11.1487C61.1559 11.5581 61.2582 11.8573 61.4629 12.0463C61.6677 12.2352 61.9668 12.3455 62.3605 12.377C62.7542 12.3927 63.2423 12.3848 63.825 12.3533V15.1169C61.7306 15.3531 60.2504 15.1563 59.3844 14.5264C58.534 13.8965 58.1089 12.7706 58.1089 11.1487V6.23572L58.1089 3.30682L58.1089 0.921186L61.1559 0V3.30682H63.825V6.23572Z" fill="white"/>
    <path d="M39.3077 4.05288C40.7673 4.05288 42.01 4.6077 43.0361 5.71734C44.0765 6.81257 44.5968 8.15999 44.5968 9.7596C44.5968 11.3592 44.0765 12.7138 43.0361 13.8235C42.01 14.9187 40.7673 15.4663 39.3077 15.4663C37.7904 15.4663 36.6198 14.9403 35.7961 13.8883V15.1637H32.9999V0.0322266H35.7961V5.63087C36.6198 4.57887 37.7904 4.05288 39.3077 4.05288ZM36.6415 11.9645C37.2051 12.5265 37.9204 12.8075 38.7875 12.8075C39.6545 12.8075 40.3699 12.5265 40.9334 11.9645C41.5115 11.388 41.8005 10.6531 41.8005 9.7596C41.8005 8.86612 41.5115 8.13837 40.9334 7.57635C40.3699 6.99991 39.6545 6.71169 38.7875 6.71169C37.9204 6.71169 37.2051 6.99991 36.6415 7.57635C36.0779 8.13837 35.7961 8.86612 35.7961 9.7596C35.7961 10.6531 36.0779 11.388 36.6415 11.9645Z" fill="white"/>
    <path d="M26.632 2.97656C27.9232 2.97656 28.9861 3.4096 29.8207 4.27567C30.671 5.14174 31.0962 6.3385 31.0962 7.86593V15.1173H28.0492V8.24385C28.0492 7.45652 27.8366 6.85814 27.4114 6.44872C26.9863 6.02356 26.4194 5.81098 25.7108 5.81098C24.9234 5.81098 24.2936 6.05505 23.8212 6.5432C23.3488 7.03135 23.1125 7.76358 23.1125 8.73988V15.1173H20.0656V3.30724H23.1125V4.62997C23.8526 3.5277 25.0258 2.97656 26.632 2.97656Z" fill="white"/>
    <path d="M9.83386 10.4641C10.2433 11.9443 11.3534 12.6844 13.1643 12.6844C14.3296 12.6844 15.2114 12.2908 15.8098 11.5034L18.2663 12.9206C17.101 14.6055 15.3846 15.448 13.1171 15.448C11.1645 15.448 9.59766 14.8575 8.41665 13.6765C7.23565 12.4955 6.64514 11.0074 6.64514 9.21228C6.64514 7.4329 7.22777 5.9527 8.39303 4.77169C9.55829 3.57494 11.0542 2.97656 12.8809 2.97656C14.613 2.97656 16.0381 3.57494 17.1561 4.77169C18.2899 5.96845 18.8568 7.44864 18.8568 9.21228C18.8568 9.60595 18.8174 10.0232 18.7387 10.4641H9.83386ZM9.78662 8.10213H15.8098C15.6365 7.29905 15.2744 6.70067 14.7232 6.307C14.1878 5.91333 13.5737 5.7165 12.8809 5.7165C12.062 5.7165 11.3849 5.92908 10.8495 6.35424C10.3141 6.76366 9.95983 7.34629 9.78662 8.10213Z" fill="white"/>
    <path d="M5.71607 6.23572H3.047V11.1487C3.047 11.5581 3.14935 11.8573 3.35406 12.0463C3.55877 12.2352 3.85796 12.3455 4.25163 12.377C4.64529 12.3927 5.13344 12.3848 5.71607 12.3533V15.1169C3.62176 15.3531 2.14156 15.1563 1.27549 14.5264C0.425163 13.8965 0 12.7706 0 11.1487V6.23572L-1.00838e-05 3.30682L0 0.921186L3.047 0V3.30682H5.71607V6.23572Z" fill="white"/>
    <path d="M57.1313 3.35791L50.1886 19.5594H47.1972L49.6016 14.2488L45.108 3.35791H48.2859L51.1804 11.1631L54.1153 3.35791H57.1313Z" fill="white"/>
</svg>
