<svg width="94" height="24" viewBox="0 0 94 24" fill="none" xmlns="http://www.w3.org/2000/svg">
<path d="M67.9429 12.6842C68.3523 14.1644 69.4624 14.9045 71.2733 14.9045C72.4386 14.9045 73.3204 14.5108 73.9188 13.7235L76.3753 15.1407C75.21 16.8256 73.4936 17.6681 71.2261 17.6681C69.2735 17.6681 67.7067 17.0776 66.5257 15.8966C65.3447 14.7156 64.7542 13.2275 64.7542 11.4324C64.7542 9.65297 65.3368 8.17278 66.502 6.99177C67.6673 5.79502 69.1632 5.19664 70.9899 5.19664C72.722 5.19664 74.1471 5.79502 75.2651 6.99177C76.3989 8.18852 76.9658 9.66872 76.9658 11.4324C76.9658 11.826 76.9264 12.2433 76.8477 12.6842H67.9429ZM67.8956 10.3222H73.9188C73.7456 9.51913 73.3834 8.92075 72.8322 8.52708C72.2968 8.13341 71.6827 7.93658 70.9899 7.93658C70.171 7.93658 69.4939 8.14916 68.9585 8.57432C68.4231 8.98374 68.0688 9.56637 67.8956 10.3222Z" fill="white"/>
<path d="M63.825 8.45593H61.1559V13.3689C61.1559 13.7783 61.2582 14.0775 61.4629 14.2665C61.6677 14.4554 61.9668 14.5657 62.3605 14.5972C62.7542 14.6129 63.2423 14.605 63.825 14.5736V17.3371C61.7306 17.5733 60.2504 17.3765 59.3844 16.7466C58.534 16.1167 58.1089 14.9908 58.1089 13.3689V8.45593L58.1089 5.52704L58.1089 3.1414L61.1559 2.22021V5.52704H63.825V8.45593Z" fill="white"/>
<path d="M39.3078 6.2732C40.7674 6.2732 42.0102 6.82802 43.0362 7.93766C44.0767 9.03289 44.5969 10.3803 44.5969 11.9799C44.5969 13.5795 44.0767 14.9342 43.0362 16.0438C42.0102 17.139 40.7674 17.6866 39.3078 17.6866C37.7905 17.6866 36.62 17.1606 35.7963 16.1087V17.384H33V2.25255H35.7963V7.85119C36.62 6.7992 37.7905 6.2732 39.3078 6.2732ZM36.6416 14.1848C37.2052 14.7468 37.9206 15.0278 38.7876 15.0278C39.6547 15.0278 40.37 14.7468 40.9336 14.1848C41.5116 13.6084 41.8006 12.8734 41.8006 11.9799C41.8006 11.0864 41.5116 10.3587 40.9336 9.79667C40.37 9.22023 39.6547 8.93201 38.7876 8.93201C37.9206 8.93201 37.2052 9.22023 36.6416 9.79667C36.0781 10.3587 35.7963 11.0864 35.7963 11.9799C35.7963 12.8734 36.0781 13.6084 36.6416 14.1848Z" fill="white"/>
<path d="M26.632 5.19664C27.9232 5.19664 28.9861 5.62968 29.8207 6.49575C30.671 7.36182 31.0962 8.55857 31.0962 10.086V17.3374H28.0492V10.4639C28.0492 9.67659 27.8366 9.07822 27.4114 8.6688C26.9863 8.24364 26.4194 8.03106 25.7108 8.03106C24.9234 8.03106 24.2936 8.27513 23.8212 8.76328C23.3488 9.25143 23.1125 9.98365 23.1125 10.96V17.3374H20.0656V5.52732H23.1125V6.85005C23.8526 5.74778 25.0258 5.19664 26.632 5.19664Z" fill="white"/>
<path d="M9.83386 12.6842C10.2433 14.1644 11.3534 14.9045 13.1643 14.9045C14.3296 14.9045 15.2114 14.5108 15.8098 13.7235L18.2663 15.1407C17.101 16.8256 15.3846 17.6681 13.1171 17.6681C11.1645 17.6681 9.59766 17.0776 8.41665 15.8966C7.23565 14.7156 6.64514 13.2275 6.64514 11.4324C6.64514 9.65297 7.22777 8.17278 8.39303 6.99177C9.55829 5.79502 11.0542 5.19664 12.8809 5.19664C14.613 5.19664 16.0381 5.79502 17.1561 6.99177C18.2899 8.18852 18.8568 9.66872 18.8568 11.4324C18.8568 11.826 18.8174 12.2433 18.7387 12.6842H9.83386ZM9.78662 10.3222H15.8098C15.6365 9.51913 15.2744 8.92075 14.7232 8.52708C14.1878 8.13341 13.5737 7.93658 12.8809 7.93658C12.062 7.93658 11.3849 8.14916 10.8495 8.57432C10.3141 8.98374 9.95983 9.56637 9.78662 10.3222Z" fill="white"/>
<path d="M5.71607 8.45593H3.047V13.3689C3.047 13.7783 3.14935 14.0775 3.35406 14.2665C3.55877 14.4554 3.85796 14.5657 4.25163 14.5972C4.64529 14.6129 5.13344 14.605 5.71607 14.5736V17.3371C3.62176 17.5733 2.14156 17.3765 1.27549 16.7466C0.425163 16.1167 0 14.9908 0 13.3689V8.45593L-1.00838e-05 5.52704L0 3.1414L3.047 2.22021V5.52704H5.71607V8.45593Z" fill="white"/>
<path d="M57.1312 5.57826L50.1884 21.7798H47.1971L49.6014 16.4692L45.1079 5.57826H48.2858L51.1803 13.3834L54.1152 5.57826H57.1312Z" fill="white"/>
</svg>
