<svg width="24" height="24" viewBox="0 0 24 24" fill="none" xmlns="http://www.w3.org/2000/svg">
<path fill-rule="evenodd" clip-rule="evenodd" d="M12.1402 4.90954C11.426 5.2565 10.5209 5.85139 9.2311 6.70181L9.01216 6.84616C8.9955 6.85715 8.97905 6.868 8.96283 6.8787C8.58263 7.12949 8.31931 7.30319 8.03077 7.43053C7.74641 7.55603 7.44756 7.64568 7.14108 7.69744C6.83009 7.74995 6.51464 7.74989 6.05918 7.7498C6.03974 7.74979 6.02004 7.74979 6.00008 7.74979C4.55641 7.74979 4.06911 7.76607 3.6548 7.95775C3.25445 8.14298 2.82804 8.54419 2.6188 8.93254C2.40052 9.33765 2.36045 9.75285 2.2834 11.017C2.26225 11.364 2.25 11.6966 2.25 11.9998C2.25 12.303 2.26225 12.6356 2.2834 12.9826C2.36045 14.2467 2.40052 14.6619 2.6188 15.067C2.82804 15.4554 3.25445 15.8566 3.6548 16.0418C4.06911 16.2335 4.55641 16.2498 6.00008 16.2498C6.02004 16.2498 6.03973 16.2498 6.05917 16.2498C6.51464 16.2497 6.83009 16.2496 7.14108 16.3021C7.44756 16.3539 7.74641 16.4436 8.03077 16.569C8.31931 16.6964 8.58263 16.8701 8.96282 17.1209C8.97905 17.1316 8.99549 17.1424 9.01216 17.1534L9.2311 17.2978C10.5209 18.1482 11.426 18.7431 12.1402 19.09C12.8525 19.4361 13.2087 19.4499 13.4578 19.3649C13.5952 19.318 13.7297 19.2496 13.8485 19.1661C14.0651 19.0139 14.2626 18.7193 14.4015 17.9479C14.541 17.1731 14.5924 16.1011 14.6635 14.5704C14.7156 13.4508 14.75 12.5116 14.75 11.9998C14.75 11.488 14.7156 10.5488 14.6635 9.42921C14.5924 7.89846 14.541 6.82652 14.4015 6.05164C14.2626 5.28028 14.0651 4.98571 13.8485 4.83346C13.7297 4.74998 13.5952 4.68157 13.4578 4.63468C13.2087 4.54965 12.8525 4.56352 12.1402 4.90954ZM11.4848 3.56031C12.3108 3.15904 13.1241 2.93586 13.9423 3.21506C14.2142 3.30784 14.4759 3.44103 14.7109 3.60621C15.417 4.10242 15.7159 4.88643 15.8778 5.78588C16.037 6.67023 16.0914 7.84218 16.1592 9.30208L16.1619 9.35959C16.2137 10.4746 16.25 11.4478 16.25 11.9998C16.25 12.5518 16.2137 13.525 16.1619 14.64L16.1592 14.6975C16.0914 16.1574 16.037 17.3293 15.8778 18.2137C15.7159 19.1131 15.417 19.8972 14.7109 20.3934C14.4759 20.5585 14.2142 20.6917 13.9423 20.7845C13.1241 21.0637 12.3108 20.8405 11.4848 20.4393C10.6712 20.0441 9.68413 19.3932 8.45327 18.5816L8.18647 18.4057C7.73856 18.1104 7.58448 18.0117 7.42513 17.9413C7.25452 17.866 7.0752 17.8123 6.89132 17.7812C6.71956 17.7522 6.5366 17.7498 6.00008 17.7498C5.94569 17.7498 5.89203 17.7498 5.83907 17.7498C4.62215 17.7505 3.77659 17.7509 3.02496 17.4032C2.33016 17.0817 1.66141 16.4525 1.29828 15.7785C0.905663 15.0499 0.859593 14.2878 0.794087 13.2043C0.791489 13.1613 0.788861 13.1178 0.786179 13.0738C0.763733 12.7056 0.75 12.3414 0.75 11.9998C0.75 11.6582 0.763733 11.294 0.786179 10.9258C0.788861 10.8818 0.791489 10.8383 0.794087 10.7953C0.859593 9.71176 0.905663 8.94972 1.29828 8.22104C1.66141 7.54708 2.33016 6.91785 3.02496 6.5964C3.77659 6.24864 4.62215 6.24909 5.83906 6.24973C5.89203 6.24976 5.94569 6.24979 6.00008 6.24979C6.5366 6.24979 6.71956 6.24738 6.89132 6.21838C7.0752 6.18732 7.25452 6.13353 7.42513 6.05823C7.58448 5.9879 7.73856 5.8892 8.18647 5.59387L8.45328 5.41795C9.68414 4.60637 10.6712 3.95552 11.4848 3.56031ZM19.5199 5.42383C19.8381 5.15866 20.311 5.20165 20.5762 5.51986L20 6C20.5762 5.51986 20.5762 5.51986 20.5762 5.51986L20.5773 5.52124L20.5786 5.52278L20.5816 5.52639L20.5891 5.53566C20.5948 5.54276 20.6018 5.55169 20.6102 5.56248C20.6269 5.58406 20.6486 5.61305 20.6748 5.64962C20.727 5.72275 20.7966 5.82615 20.8775 5.961C21.0394 6.23082 21.2462 6.62598 21.45 7.15577C21.8582 8.21713 22.25 9.80843 22.25 12C22.25 14.1916 21.8582 15.7829 21.45 16.8442C21.2462 17.374 21.0394 17.7692 20.8775 18.039C20.7966 18.1738 20.727 18.2772 20.6748 18.3504C20.6486 18.3869 20.6269 18.4159 20.6102 18.4375C20.6052 18.444 20.6007 18.4498 20.5966 18.4549C20.5939 18.4583 20.5914 18.4615 20.5891 18.4643L20.5816 18.4736L20.5786 18.4772L20.5773 18.4788C20.5773 18.4788 20.5762 18.4801 20 18L20.5762 18.4801C20.311 18.7983 19.8381 18.8413 19.5199 18.5762C19.2032 18.3123 19.1591 17.8426 19.42 17.5245M19.42 17.5245C19.42 17.5245 19.4218 17.5222 19.4235 17.52C19.4288 17.5132 19.4393 17.4994 19.4542 17.4785C19.4839 17.4368 19.5315 17.3668 19.5913 17.2673C19.7106 17.0683 19.8788 16.751 20.05 16.3058C20.3918 15.4171 20.75 14.0084 20.75 12C20.75 9.99157 20.3918 8.58287 20.05 7.69423C19.8788 7.24901 19.7106 6.93168 19.5913 6.73275C19.5315 6.63322 19.4839 6.56318 19.4542 6.52148C19.4393 6.50062 19.4288 6.48684 19.4235 6.48C19.4218 6.47779 19.42 6.47553 19.42 6.47553L19.4235 6.48L19.422 6.47787L19.42 6.47553C19.1591 6.15738 19.2032 5.68773 19.5199 5.42383M17.6358 8.34438C17.9979 8.14322 18.4545 8.27368 18.6556 8.63577L18.0276 8.98466C18.6556 8.63578 18.6556 8.63577 18.6556 8.63577L18.6563 8.63708L18.6571 8.63847L18.6588 8.64152L18.6626 8.64864L18.6723 8.66699C18.6795 8.68106 18.6884 8.69881 18.6986 8.72032C18.7191 8.76335 18.7451 8.82135 18.7745 8.89489C18.8333 9.04206 18.9059 9.251 18.9765 9.52622C19.1178 10.0772 19.25 10.8899 19.25 12C19.25 13.1101 19.1178 13.9228 18.9765 14.4738C18.9059 14.749 18.8333 14.9579 18.7745 15.1051C18.7451 15.1787 18.7191 15.2367 18.6986 15.2797C18.6884 15.3012 18.6795 15.3189 18.6723 15.333L18.6626 15.3514L18.6588 15.3585L18.6571 15.3615L18.6563 15.3629C18.6563 15.3629 18.6556 15.3642 18.0276 15.0153L18.6556 15.3642C18.4545 15.7263 17.9979 15.8568 17.6358 15.6556C17.2768 15.4562 17.1455 15.0056 17.3393 14.645L17.3443 14.6348C17.3512 14.6204 17.3643 14.5917 17.3818 14.548C17.4167 14.4608 17.4691 14.3135 17.5235 14.1012C17.6322 13.6772 17.75 12.9899 17.75 12C17.75 11.0101 17.6322 10.3228 17.5235 9.89878C17.4691 9.6865 17.4167 9.53919 17.3818 9.45198C17.3643 9.40834 17.3512 9.37962 17.3443 9.36522L17.3393 9.35498C17.1455 8.9944 17.2768 8.54383 17.6358 8.34438Z" fill="white"/>
</svg>
