<svg width="24" height="24" viewBox="0 0 24 24" fill="none" xmlns="http://www.w3.org/2000/svg">
<path fill-rule="evenodd" clip-rule="evenodd" d="M12.1402 4.9088C11.426 5.25577 10.5209 5.85066 9.2311 6.70108L9.01216 6.84543C8.9955 6.85642 8.97905 6.86727 8.96283 6.87797C8.58263 7.12876 8.31931 7.30245 8.03077 7.4298C7.74641 7.55529 7.44756 7.64495 7.14108 7.6967C6.83009 7.74922 6.51464 7.74916 6.05918 7.74906C6.03974 7.74906 6.02004 7.74906 6.00008 7.74906C4.55641 7.74906 4.06911 7.76533 3.6548 7.95702C3.25445 8.14225 2.82804 8.54345 2.6188 8.9318C2.40052 9.33692 2.36045 9.75211 2.2834 11.0163C2.26225 11.3633 2.25 11.6958 2.25 11.9991C2.25 12.3023 2.26225 12.6349 2.2834 12.9818C2.36045 14.246 2.40052 14.6612 2.6188 15.0663C2.82804 15.4547 3.25445 15.8559 3.6548 16.0411C4.06911 16.2328 4.55641 16.2491 6.00008 16.2491C6.02004 16.2491 6.03973 16.2491 6.05917 16.249C6.51464 16.249 6.83009 16.2489 7.14108 16.3014C7.44756 16.3532 7.74641 16.4428 8.03077 16.5683C8.31931 16.6957 8.58263 16.8693 8.96282 17.1201C8.97905 17.1308 8.99549 17.1417 9.01216 17.1527L9.2311 17.297C10.5209 18.1475 11.426 18.7423 12.1402 19.0893C12.8525 19.4353 13.2087 19.4492 13.4578 19.3642C13.5952 19.3173 13.7297 19.2489 13.8485 19.1654C14.0651 19.0131 14.2626 18.7186 14.4015 17.9472C14.541 17.1723 14.5924 16.1004 14.6635 14.5696C14.7156 13.4501 14.75 12.5108 14.75 11.9991C14.75 11.4873 14.7156 10.548 14.6635 9.42848C14.5924 7.89773 14.541 6.82579 14.4015 6.05091C14.2626 5.27954 14.0651 4.98497 13.8485 4.83273C13.7297 4.74925 13.5952 4.68083 13.4578 4.63395C13.2087 4.54891 12.8525 4.56279 12.1402 4.9088ZM11.4848 3.55957C12.3108 3.15831 13.1241 2.93512 13.9423 3.21433C14.2142 3.30711 14.4759 3.4403 14.7109 3.60548C15.417 4.10169 15.7159 4.8857 15.8778 5.78515C16.037 6.6695 16.0914 7.84145 16.1592 9.30134L16.1619 9.35886C16.2137 10.4738 16.25 11.4471 16.25 11.9991C16.25 12.5511 16.2137 13.5243 16.1619 14.6393L16.1592 14.6968C16.0914 16.1567 16.037 17.3286 15.8778 18.213C15.7159 19.1124 15.417 19.8964 14.7109 20.3926C14.4759 20.5578 14.2142 20.691 13.9423 20.7838C13.1241 21.063 12.3108 20.8398 11.4848 20.4385C10.6712 20.0433 9.68413 19.3925 8.45327 18.5809L8.18647 18.405C7.73856 18.1096 7.58448 18.0109 7.42513 17.9406C7.25452 17.8653 7.0752 17.8115 6.89132 17.7805C6.71956 17.7515 6.5366 17.7491 6.00008 17.7491C5.94569 17.7491 5.89203 17.7491 5.83907 17.7491C4.62215 17.7498 3.77659 17.7502 3.02496 17.4024C2.33016 17.081 1.66141 16.4518 1.29828 15.7778C0.905663 15.0491 0.859593 14.2871 0.794087 13.2035C0.791489 13.1606 0.788861 13.1171 0.786179 13.0731C0.763733 12.7048 0.75 12.3406 0.75 11.9991C0.75 11.6575 0.763733 11.2933 0.786179 10.925C0.788861 10.881 0.791489 10.8375 0.794087 10.7946C0.859593 9.71103 0.905663 8.94899 1.29828 8.2203C1.66141 7.54634 2.33016 6.91712 3.02496 6.59566C3.77659 6.24791 4.62215 6.24836 5.83906 6.249C5.89203 6.24903 5.94569 6.24906 6.00008 6.24906C6.5366 6.24906 6.71956 6.24665 6.89132 6.21764C7.0752 6.18659 7.25452 6.1328 7.42513 6.0575C7.58448 5.98717 7.73856 5.88847 8.18647 5.59314L8.45328 5.41722C9.68414 4.60564 10.6712 3.95478 11.4848 3.55957Z" fill="white"/>
</svg>
